<svg version="1.2" baseProfile="tiny-ps" xmlns="http://www.w3.org/2000/svg" viewBox="0 0 476 402" width="476" height="402">
	<title>Clip-Path</title>
	<defs>
		<clipPath clipPathUnits="userSpaceOnUse" id="cp1">
			<path d="M-61 -114L539 -114L539 506L-61 506L-61 -114Z" />
		</clipPath>
	</defs>
	<style>
		tspan { white-space:pre }
		.shp0 { fill: #000000 } 
	</style>
	<g id="Clip-Path" clip-path="url(#cp1)">
		<g id="Layer">
			<path id="Layer" class="shp0" d="M169.5 1.1C144.9 3.6 120.8 11.1 101.2 22.3C92.6 27.2 90.5 30.3 89.4 40.1C88.7 47.1 89.6 47.6 91.1 40.9C92.7 33.9 95.5 31.1 105.4 26.5C131.6 14.3 158 9.2 189.5 10.3C213 11.1 233.8 15.5 248.3 22.6L253.5 25.1L250 22.1C245.2 17.9 232 11.5 223.1 9.1C219 8 215.5 6.8 215.2 6.5C214.9 6.2 217.3 6 220.6 5.9C225.4 5.9 226 5.7 224.1 4.9C215.7 1.6 185.4 -0.6 169.5 1.1Z" />
			<path id="Layer" class="shp0" d="M201.3 20.5L198.5 23L201.7 22.4C204.2 21.9 205.4 22.3 207.4 24.3C211 27.9 211.1 35 207.5 38.5C204.9 41.2 206 41.7 210.7 39.9C215.6 38.1 218 35.1 218 30.8C218 20.3 208.3 14.3 201.3 20.5Z" />
			<path id="Layer" class="shp0" d="M137.2 25.6L133.5 29.2L140.7 28.6C144.6 28.3 148.9 27.6 150.2 27.1C152.4 26.2 152.3 26.1 148 24.1C142 21.4 141.6 21.4 137.2 25.6Z" />
			<path id="Layer" class="shp0" d="M251.2 32.6C271.6 50.8 293.4 62.4 315.5 66.9C321 68 335.2 69.6 347 70.5C358.8 71.3 373.5 72.8 379.5 73.7C389.1 75.2 390 75.5 386.5 76C382.1 76.7 382.1 76.7 392 80.3C404.9 85.1 419.5 93.6 425 99.4L427.4 102.1L420.7 98.9C416.9 97.2 413.7 95.9 413.5 96.2C413.3 96.4 415.7 98.6 418.8 101.1C433.5 112.9 447.7 136.5 452.5 157.3C454.7 166.8 456.2 181.9 455.4 187.3L454.8 192.2L451.1 188.6C449.1 186.6 447.2 185 447 185C446.7 185 446.4 190.5 446.4 197.3C446.2 217.9 442.1 233.6 431.4 255.5C402.7 314.6 349.4 355.9 275 377C257.9 381.8 236.2 386.3 218 388.7C199 391.2 144.4 391.2 125.5 388.7C107.2 386.2 89.8 382.5 77.3 378.4C23.1 360.4 12.9 326 55.5 304.8C87.1 289 128.3 288.6 187.3 303.6C219.3 311.7 264.1 327.6 293 341.2C298.8 343.9 302.8 345.4 302 344.6C298.8 341.4 272.6 326.4 255.5 318C202.7 292 156.2 280 107.8 280C79.7 280 58.7 283.5 39.1 291.6C20.9 299.1 8.7 308.8 3.1 320.2C-0.1 326.6 -0.2 327.4 0.2 335.2C0.6 341.9 1.2 344.6 3.8 349.6C7.6 357.1 15.3 365.7 23.6 371.6C40.7 383.8 73.5 394.5 110 399.7C129.5 402.4 183 402.2 208 399.1C273.5 391.3 321.1 376.9 360.9 353C403.2 327.6 431.8 296.7 451.9 254.9C462.2 233.5 466.1 217.9 466.4 197.8C466.4 191.3 466.8 186 467.1 186C467.4 186 468.7 189.3 469.9 193.2C473.6 205.1 473.6 205.1 474.6 199.5C475.1 196.7 475.4 187.7 475.4 179.5C475.3 166.8 474.9 163 472.7 154.7C466.3 130.7 452.2 108.2 434.5 94.2L430.5 91L435.8 93C438.7 94.1 443.3 96.1 446 97.5C452.6 100.8 453 100.7 448.9 96.4C441.3 88.3 424.1 79.1 406.8 73.9C403 72.7 400.1 71.6 400.3 71.4C400.5 71.1 405.4 71.9 411.1 73C424.2 75.5 425.2 75.5 422 73C408.4 62.2 393 58.7 350.5 57.1C323.2 56 311.6 54.3 295 48.9C283.1 45.1 267.2 38.3 255.4 31.9C250.4 29.2 246 27 245.6 27C245.2 27 247.7 29.5 251.2 32.6Z" />
			<path id="Layer" class="shp0" d="M316.5 175.6C307.2 177.5 300.1 179.5 294.8 181.7C287.4 184.7 271.5 192.5 269.7 194C269.1 194.6 265.6 196.9 262.1 199.3C248.9 208 235.1 222.8 228.9 235.2C217.6 257.7 230.5 292.4 258 313.4C266.5 319.9 266.6 319.8 259.8 311.1C238.3 283.9 232.7 258.4 243.6 236.8C252.2 219.7 273 200 296.5 186.8C306.5 181.1 313.2 178.1 319 176.4C323.2 175.3 321.3 174.7 316.5 175.6Z" />
			<path id="Layer" class="shp0" d="M105.4 73.7C110.9 80.4 151.73 103.25 154.43 127.65C157.23 152.25 162.03 166.85 170.93 177.65C175.43 183.05 182.83 189.55 188.13 192.55C191.33 194.45 191.23 194.35 186.63 188.85C174.03 174.05 168.93 160.85 163.33 128.65C159.03 104.15 115.7 77.5 107.5 72.5C102.9 69.6 102.2 70 105.4 73.7Z" />
		</g>
	</g>
</svg>